<?xml version="1.0" standalone="no"?>
<!DOCTYPE svg PUBLIC "-//W3C//DTD SVG 20010904//EN"
 "http://www.w3.org/TR/2001/REC-SVG-20010904/DTD/svg10.dtd">
<svg version="1.0" xmlns="http://www.w3.org/2000/svg"
 width="301.000000pt" height="301.000000pt" viewBox="0 0 301.000000 301.000000"
 preserveAspectRatio="xMidYMid meet">

<g transform="translate(0.000000,301.000000) scale(0.100000,-0.100000)"
fill="#ffff" stroke="none">
<path d="M1750 2440 c0 -88 2 -101 14 -91 8 7 18 26 21 42 4 16 13 29 21 29
15 0 48 -65 40 -78 -3 -4 -54 -30 -115 -56 -84 -37 -111 -53 -111 -67 0 -11 6
-19 14 -19 8 0 70 25 137 55 138 62 126 64 182 -26 26 -41 33 -59 25 -67 -8
-8 23 -66 116 -213 l126 -202 -49 -52 c-56 -59 -102 -145 -121 -223 -13 -57
-9 -82 14 -82 19 0 31 23 41 74 13 76 107 226 141 226 22 0 17 -15 -22 -56
-19 -22 -49 -68 -67 -104 -30 -60 -32 -72 -32 -165 0 -97 2 -104 38 -177 172
-348 685 -266 747 119 18 109 -19 230 -96 322 -89 107 -271 158 -410 116 -62
-18 -85 -3 -29 21 60 25 169 29 243 10 85 -21 94 -21 90 7 -7 53 -223 77 -338
37 -42 -14 -58 -16 -66 -7 -6 7 -64 96 -128 200 -78 123 -124 187 -135 187
-10 0 -38 32 -69 81 -46 70 -56 81 -76 77 -20 -4 -27 1 -39 33 -9 22 -26 44
-40 50 -17 8 -27 22 -31 44 -4 18 -13 38 -21 45 -13 11 -15 -1 -15 -90z m871
-878 c77 -40 112 -93 117 -178 5 -82 -15 -140 -67 -187 -50 -45 -98 -60 -177
-55 -82 5 -136 41 -176 117 -42 81 -34 184 19 243 22 25 27 23 48 -15 14 -27
15 -38 6 -55 -17 -33 -13 -103 9 -139 25 -41 68 -63 122 -63 142 0 189 185 66
260 -18 11 -47 20 -65 20 -24 0 -36 7 -51 32 -11 18 -18 36 -16 40 3 4 29 8
58 8 39 0 68 -8 107 -28z"/>
<path d="M2257 2278 c-75 -16 -137 -66 -137 -110 0 -57 64 -110 147 -124 54
-8 85 25 91 101 8 98 -30 148 -101 133z"/>
<path d="M1767 2130 c-3 -11 -14 -20 -25 -20 -38 0 -178 -80 -279 -160 -57
-45 -103 -85 -103 -89 0 -5 21 -15 48 -22 34 -10 111 -14 277 -14 258 0 278 4
309 69 35 73 4 171 -65 206 -21 11 -45 20 -54 20 -8 0 -15 7 -15 15 0 11 -12
15 -44 15 -35 0 -45 -4 -49 -20z m146 -47 c38 -19 34 -23 -10 -11 -51 14 -157
4 -221 -20 -29 -11 -52 -18 -52 -16 0 2 23 15 51 30 88 44 167 50 232 17z"/>
<path d="M1181 1833 c-119 -57 -150 -59 -230 -9 -71 43 -105 46 -143 9 l-27
-26 32 -41 c67 -85 113 -126 141 -126 53 0 256 110 329 178 31 29 36 62 10 61
-10 0 -60 -21 -112 -46z"/>
<path d="M341 1834 c-30 -8 -76 -27 -104 -41 -67 -37 -150 -116 -145 -139 5
-30 22 -26 68 17 60 56 107 84 179 109 161 54 358 -3 466 -135 38 -46 75 -60
75 -27 0 27 -79 112 -144 154 -114 74 -264 97 -395 62z"/>
<path d="M1610 1769 c-60 -24 -100 -85 -100 -151 0 -95 72 -162 168 -155 64 5
99 28 130 88 65 124 -68 270 -198 218z"/>
<path d="M1872 1722 l-30 -57 39 -30 c23 -17 37 -35 34 -43 -15 -39 -232 -326
-259 -343 -29 -18 -54 -19 -368 -19 -218 0 -338 4 -340 10 -2 7 -130 9 -375 8
l-371 -3 21 -45 22 -45 353 -3 c309 -2 352 0 352 13 0 13 43 15 338 15 307 0
341 2 378 19 34 16 62 48 169 195 94 131 130 174 139 167 15 -13 105 74 91 87
-6 5 -44 36 -86 70 l-77 61 -30 -57z"/>
<path d="M349 1752 c-130 -43 -231 -149 -269 -283 l-9 -29 93 0 c94 0 94 0
105 29 16 38 68 87 113 105 49 21 140 20 181 0 41 -21 95 -71 113 -106 13 -25
20 -28 64 -28 28 0 50 -4 50 -10 0 -5 19 -10 41 -10 l41 0 -7 37 c-20 110
-133 242 -242 284 -80 30 -200 35 -274 11z"/>
<path d="M1078 1652 l-197 -97 21 -47 21 -48 146 0 146 0 93 130 c51 71 95
137 98 145 5 13 -5 15 -62 14 -66 0 -77 -4 -266 -97z"/>
<path d="M1333 1545 c-107 -158 -99 -155 -366 -155 -131 0 -207 4 -207 10 0 6
-116 10 -329 10 l-330 0 26 -45 25 -45 304 0 c264 0 304 2 304 15 0 13 32 15
225 15 255 0 260 1 318 72 50 62 137 202 137 221 0 41 -35 9 -107 -98z"/>
<path d="M1575 1395 c-30 -30 -31 -54 -4 -89 40 -50 119 -24 119 40 0 68 -68
97 -115 49z"/>
<path d="M73 1337 c10 -187 143 -333 336 -369 119 -22 261 26 352 118 l43 44
-286 0 -285 0 -31 68 -30 67 45 3 c66 5 49 26 -23 30 l-60 3 -32 57 -33 57 4
-78z"/>
<path d="M1322 1378 c-19 -19 -14 -45 10 -62 15 -11 45 -16 88 -16 70 0 110
18 110 49 0 33 -22 41 -110 41 -54 0 -91 -5 -98 -12z"/>
<path d="M790 1311 c0 -6 -23 -11 -52 -13 -30 -2 -53 -8 -56 -15 -3 -10 20
-13 92 -13 96 0 96 0 96 25 0 23 -4 25 -40 25 -22 0 -40 -4 -40 -9z"/>
</g>
</svg>
